<?xml version="1.0" encoding="UTF-8"?>
<svg version="1.1" xmlns="http://www.w3.org/2000/svg" width="500" height="500">
<path d="M0 0 C0 10.5 0 10.5 -3 14 C-2.0409375 14.2165625 -2.0409375 14.2165625 -1.0625 14.4375 C1 15 1 15 2 16 C3.43434586 16.15710888 4.87297244 16.27604721 6.3125 16.375 C9.99840453 16.74476431 12.39080126 17.16391441 15 20 C15 20.66 15 21.32 15 22 C16.953125 22.48828125 18.90625 22.9765625 20.859375 23.46484375 C22.90625 23.9765625 24.953125 24.48828125 27 25 C27.020625 23.906875 27.04125 22.81375 27.0625 21.6875 C28 18 28 18 30.9375 15.875 C35.8775468 14.17365608 40.35470132 16.13168974 45 18 C45.66 18.33 46.32 18.66 47 19 C49.67212027 19.2591496 52.3219787 19.46581692 55 19.625 C55.73734375 19.6765625 56.4746875 19.728125 57.234375 19.78125 C61.24015785 20.1413788 61.24015785 20.1413788 65 19 C67.6694635 18.98547626 70.27596636 19.04939051 72.9375 19.1875 C73.66646484 19.20619141 74.39542969 19.22488281 75.14648438 19.24414062 C80.51175856 19.52445284 80.51175856 19.52445284 82.953125 21.90234375 C84.89879698 25.80094767 85.26557578 28.06163223 84.0625 32.3125 C83.711875 33.199375 83.36125 34.08625 83 35 C81.68 35 80.36 35 79 35 C79 35.99 79 36.98 79 38 C79.66 38 80.32 38 81 38 C82.13105506 40.03831848 83.25458472 42.08081376 84.375 44.125 C85.00148438 45.26195312 85.62796875 46.39890625 86.2734375 47.5703125 C88 51 88 51 89.0390625 54.3671875 C89.35617187 55.23601562 89.67328125 56.10484375 90 57 C90.99 57.33 91.98 57.66 93 58 C93.7734375 60.546875 93.7734375 60.546875 94.375 63.75 C95.57090674 69.09381485 96.95960268 71.26263248 101 75 C101.77734375 77.1484375 101.77734375 77.1484375 102.4375 79.5625 C103.80268993 84.22882715 105.71802942 85.60209647 110 88 C114.90666667 92.16 114.90666667 92.16 115.3125 95.8125 C115.1578125 96.8953125 115.1578125 96.8953125 115 98 C118.64470548 99.13194598 121.03677873 98.62685841 124.71484375 97.609375 C128.76408464 96.52957743 132.88779767 95.7982905 137 95 C138.6667729 94.6671983 140.33345329 94.33393254 142 94 C141.75054402 101.90100223 140.28117669 107.94367716 136.625 114.9375 C136.18671875 115.79633789 135.7484375 116.65517578 135.296875 117.54003906 C131.30158498 125.04249399 126.49011532 131.45635983 120 137 C119.34 137 118.68 137 118 137 C118 137.66 118 138.32 118 139 C117.29875 139.515625 116.5975 140.03125 115.875 140.5625 C112.5792266 143.35674266 110.78892413 146.27576044 108.625 149.9765625 C107 152 107 152 104.42578125 152.921875 C101.74529098 153.78741651 101.74529098 153.78741651 100.85546875 156.6015625 C100.52482422 158.09816406 100.52482422 158.09816406 100.1875 159.625 C99.95417969 160.62789062 99.72085938 161.63078125 99.48046875 162.6640625 C99.32191406 163.43492187 99.16335938 164.20578125 99 165 C99.66 165.33 100.32 165.66 101 166 C100.82082031 166.59167969 100.64164063 167.18335938 100.45703125 167.79296875 C100.24433594 168.58316406 100.03164063 169.37335938 99.8125 170.1875 C99.59207031 170.96480469 99.37164062 171.74210938 99.14453125 172.54296875 C98.75212276 175.09979319 98.75212276 175.09979319 100.4453125 177.25 C103.78495318 183.15730412 102.22637673 191.52126231 101 198 C98.8234187 203.69752165 95.20129313 206.09865468 89.875 208.75 C88.58722656 209.32041016 88.58722656 209.32041016 87.2734375 209.90234375 C84.63463888 211.17640288 82.93605106 212.82194256 81 215 C80.34 215 79.68 215 79 215 C78.67 215.99 78.34 216.98 78 218 C78.33 218.66 78.66 219.32 79 220 C79.12207871 221.78859511 79.17548448 223.58228381 79.1875 225.375 C79.20167969 226.33148438 79.21585938 227.28796875 79.23046875 228.2734375 C78.99247834 231.08898509 78.55858213 232.66212681 77 235 C73.76967782 236.92444725 71.78176921 238 68 238 C68.12375 239.175625 68.2475 240.35125 68.375 241.5625 C68.40816612 246.21404786 66.57816799 248.42748971 63.5078125 251.75 C62 253 62 253 60 253 C60 253.66 60 254.32 60 255 C59.34 255 58.68 255 58 255 C57.78085937 255.56332031 57.56171875 256.12664062 57.3359375 256.70703125 C55.56914036 259.7395164 53.34551046 261.4811879 50.625 263.6875 C49.66851562 264.47511719 48.71203125 265.26273437 47.7265625 266.07421875 C43.41131556 269.12209374 39.89553868 269.13762468 34.6875 269.4375 C30.90446244 269.68293197 27.60777362 269.96116252 24.0625 271.3125 C21 272 21 272 17.625 270.5 C14.49795313 267.52186013 14.25392974 266.2321624 14 262 C13.21109363 255.95171782 11.86808528 250.2643458 7.9375 245.5 C4.04175616 240.47323376 3.8573659 234.17072814 3.2890625 228.03515625 C3.06008151 225.82680769 3.06008151 225.82680769 1.875 223.25 C0.72837301 220.30153059 1.06700537 219.01799672 2 216 C3.99609375 213.32421875 3.99609375 213.32421875 6.4375 210.6875 C7.24058594 209.80449219 8.04367188 208.92148437 8.87109375 208.01171875 C11 206 11 206 13 206 C13 205.34 13 204.68 13 204 C28.22584637 188.28770487 53.56841973 185.91990527 74 185 C73.59007812 184.29875 73.18015625 183.5975 72.7578125 182.875 C67.51168693 173.63780283 64.07691295 164.91467042 66.67578125 154.21875 C66.94777344 153.2390625 67.21976563 152.259375 67.5 151.25 C69.99943857 141.89495848 69.93379177 133.1580678 66.65625 124.0234375 C66 122 66 122 66 119 C65.0925 119.495 64.185 119.99 63.25 120.5 C58.04026795 122.78798541 52.574383 122.24714013 47 122 C47 121.34 47 120.68 47 120 C52.28 118.35 57.56 116.7 63 115 C63.33 109.39 63.66 103.78 64 98 C61.89625 98.86625 61.89625 98.86625 59.75 99.75 C55.7765427 101.33035234 51.78627979 102.83730207 47.75 104.25 C46.79609375 104.58515625 45.8421875 104.9203125 44.859375 105.265625 C38.20673453 106.97422665 33.15082291 105.32614507 26.875 103.125 C26.07707031 102.85558594 25.27914062 102.58617187 24.45703125 102.30859375 C20.79446343 101.0551273 17.48120834 99.74060417 14 98 C14 103.61 14 109.22 14 115 C20.47098534 117.77327943 23.87831913 119.04421888 30.625 119.25 C40.0272513 119.88908196 46.09997183 123.28288757 52.49609375 130.109375 C58.98200168 138.26308783 59.17197526 147.1942112 59.51757812 157.19140625 C59.82311192 163.9823273 60.79341094 170.32878281 64.125 176.375 C66 179.81021898 66 179.81021898 66 182 C66.66 182 67.32 182 68 182 C68 182.99 68 183.98 68 185 C67.04222656 184.96519531 66.08445312 184.93039062 65.09765625 184.89453125 C49.69849228 184.51551097 35.05283107 186.51278094 21.375 193.9375 C20.72015625 194.28490234 20.0653125 194.63230469 19.390625 194.99023438 C16.68722109 196.44317716 14.12079511 197.90930267 11.6640625 199.75390625 C10 201 10 201 8 201 C8 201.66 8 202.32 8 203 C7.21625 203.2475 6.4325 203.495 5.625 203.75 C2.57704392 205.20140766 2.27463336 205.99550707 1 209 C-0.5 210.75 -0.5 210.75 -2 212 C-2.66 212 -3.32 212 -4 212 C-5.38233568 205.77948945 -4.93488947 200.09166159 -3 194 C-1.71484375 192.2421875 -1.71484375 192.2421875 -0.3125 190.8125 C2.17474235 188.3433948 2.17474235 188.3433948 2.13671875 185.96875 C1.75880874 182.85522277 0.99021267 179.97063802 0 177 C0.19722656 176.23558594 0.39445312 175.47117187 0.59765625 174.68359375 C1.40159972 169.32136887 -2.26662648 164.44475562 -5 160 C-6.63168445 158.11405859 -6.63168445 158.11405859 -8.3125 156.625 C-11.3322694 153.6754578 -11.90313005 152.16540789 -12 148 C-11.67 147.67 -11.34 147.34 -11 147 C-10.76518307 144.81707226 -10.58636677 142.62796826 -10.4375 140.4375 C-10.31181641 138.64119141 -10.31181641 138.64119141 -10.18359375 136.80859375 C-10.12300781 135.88175781 -10.06242187 134.95492187 -10 134 C-12.37612865 132.39092892 -12.37612865 132.39092892 -15 131 C-15.66 131.33 -16.32 131.66 -17 132 C-19.3329866 132.04022391 -21.66706666 132.04320247 -24 132 C-24.45375 131.030625 -24.9075 130.06125 -25.375 129.0625 C-26.65786221 125.92920418 -26.65786221 125.92920418 -29 125 C-35.11489934 124.38851007 -39.15361356 125.29280714 -44.875 127.5625 C-50.66059501 129.80067738 -54.48003385 130.16839399 -60.53515625 129.19921875 C-63.91646328 128.92592769 -66.18358766 129.94187995 -69.234375 131.28125 C-72.00930134 132.41086603 -74.05119888 132.43918315 -77 132 C-79.49005965 130.83325806 -81.67330879 129.48908237 -84 128 C-84 127.34 -84 126.68 -84 126 C-84.61875 125.690625 -85.2375 125.38125 -85.875 125.0625 C-87.25 124.375 -88.625 123.6875 -90 123 C-90 122.34 -90 121.68 -90 121 C-90.60972656 120.93296875 -91.21945313 120.8659375 -91.84765625 120.796875 C-94 120 -94 120 -95.30859375 117.890625 C-95.68113281 117.01921875 -96.05367187 116.1478125 -96.4375 115.25 C-99.07039282 109.59654916 -102.05454051 105.42222424 -108 103 C-108 102.01 -108 101.02 -108 100 C-108.66 100 -109.32 100 -110 100 C-109.95875 98.9275 -109.9175 97.855 -109.875 96.75 C-109.9885825 93.34252515 -110.21273364 91.79260369 -112 89 C-111.54625 88.484375 -111.0925 87.96875 -110.625 87.4375 C-106.1173422 80.67601331 -106.68837038 73.76400114 -108 66 C-108.42410156 65.18917969 -108.84820312 64.37835938 -109.28515625 63.54296875 C-110 61 -110 61 -108.54296875 57.87109375 C-107.77828323 56.71278543 -106.99157929 55.5688172 -106.1875 54.4375 C-105.77097168 53.8290625 -105.35444336 53.220625 -104.92529297 52.59375 C-104.05673864 51.33491872 -103.17933198 50.08215222 -102.29345703 48.83544922 C-101.08531631 47.12106607 -99.92751734 45.38246662 -98.77734375 43.62890625 C-94.27292709 37.08074337 -90.46184541 33.85727134 -83.31640625 30.48828125 C-79.92568178 28.30975507 -79.40115422 25.98757003 -78.53515625 22.18359375 C-77.40400161 17.56815256 -74.86185934 14.57457289 -71 12 C-69.68 12 -68.36 12 -67 12 C-66.7525 11.236875 -66.505 10.47375 -66.25 9.6875 C-64.89004442 6.7635955 -63.68414174 5.69995644 -61 4 C-60.505 4.33 -60.01 4.66 -59.5 5 C-55.29920864 6.68031654 -51.1780773 6.85192619 -46.97265625 5.20703125 C-46.28042969 4.87058594 -45.58820313 4.53414063 -44.875 4.1875 C-32.21809201 -1.83042072 -13.6241696 -3.89261989 0 0 Z M30.90625 76.23828125 C30.23710571 76.47910934 29.56796143 76.71993744 28.87854004 76.96806335 C26.74797531 77.73804652 24.62415697 78.52503469 22.5 79.3125 C21.07201862 79.83119181 19.64363644 80.3487816 18.21484375 80.86523438 C12.78043467 82.83706546 7.35712328 84.82446359 2 87 C2 87.66 2 88.32 2 89 C5.21979219 90.46867714 8.48072134 91.80774289 11.7734375 93.10400391 C13.39122669 93.75502214 14.99952271 94.42978726 16.6015625 95.11865234 C30.17288583 100.88786676 39.66474798 103.48126431 53.625 97.8671875 C54.37265625 97.54459961 55.1203125 97.22201172 55.890625 96.88964844 C58.78075078 95.67071113 61.74978798 94.78256414 64.75 93.875 C69.41175233 92.29900987 73.66922139 90.33195771 78 88 C75.32424447 85.32424447 72.2789069 84.5817761 68.76171875 83.43359375 C67.68504692 83.07516136 67.68504692 83.07516136 66.58662415 82.70948792 C65.06690981 82.20493075 63.54622427 81.7032909 62.0246582 81.2043457 C59.70486942 80.44319909 57.38839313 79.67259744 55.07226562 78.90039062 C53.5939369 78.41089352 52.11542691 77.92194343 50.63671875 77.43359375 C49.94696457 77.20441757 49.25721039 76.97524139 48.54655457 76.73912048 C46.70481889 76.13718888 44.85271288 75.56724504 43 75 C42.16380127 74.73864258 41.32760254 74.47728516 40.46606445 74.20800781 C36.96515968 73.9127132 34.12931994 75.02570393 30.90625 76.23828125 Z M75 102 C75.185625 102.78375 75.37125 103.5675 75.5625 104.375 C76 107 76 107 75 109 C74.960008 110.99960012 74.95653201 113.00047242 75 115 C76.32 115.33 77.64 115.66 79 116 C78.67 111.38 78.34 106.76 78 102 C77.01 102 76.02 102 75 102 Z " fill="#F8F8F8" transform="translate(233,111)"/>
<path d="M0 0 C4.61125228 1.50808251 9.1893048 3.06210624 13.7265625 4.78125 C24.0465892 8.50013155 30.62176468 9.94806695 40.73828125 5.20703125 C44.65054661 3.7592588 46.95920752 4.18047233 51 5 C52.32 5 53.64 5 55 5 C55.02888514 8.14581423 55.04675923 11.29159469 55.0625 14.4375 C55.07087891 15.33533203 55.07925781 16.23316406 55.08789062 17.15820312 C55.09111328 18.01220703 55.09433594 18.86621094 55.09765625 19.74609375 C55.10289307 20.53685303 55.10812988 21.3276123 55.11352539 22.14233398 C55 24 55 24 54 25 C55.485 25.495 55.485 25.495 57 26 C56.67 27.32 56.34 28.64 56 30 C56 29.01 56 28.02 56 27 C55.0925 27.495 54.185 27.99 53.25 28.5 C48.04026795 30.78798541 42.574383 30.24714013 37 30 C37 29.34 37 28.68 37 28 C42.28 26.35 47.56 24.7 53 23 C53.33 17.39 53.66 11.78 54 6 C52.5975 6.5775 51.195 7.155 49.75 7.75 C45.7765427 9.33035234 41.78627979 10.83730207 37.75 12.25 C36.79609375 12.58515625 35.8421875 12.9203125 34.859375 13.265625 C28.20673453 14.97422665 23.15082291 13.32614507 16.875 11.125 C16.07707031 10.85558594 15.27914063 10.58617187 14.45703125 10.30859375 C10.79446343 9.0551273 7.48120834 7.74060417 4 6 C4 11.61 4 17.22 4 23 C6.31 23.99 8.62 24.98 11 26 C11.99 26.66 12.98 27.32 14 28 C9.70700357 29.26264601 7.12168689 28.62950412 3 27 C-0.86786033 30.86786033 -1.19010968 34.89894991 -1.3125 40.1875 C-1.71781793 46.80769288 -3.66649391 51.36107848 -7 57 C-7.6766726 58.32828326 -8.34673597 59.66004913 -9 61 C-8.01 61 -7.02 61 -6 61 C-3.88837316 64.16744026 -3.93801794 65.08139401 -4.0625 68.68359375 C-3.92367324 73.82886037 -2.83557394 78.93433299 -2 84 C3.94 84 9.88 84 16 84 C16.680625 85.464375 17.36125 86.92875 18.0625 88.4375 C19.3428065 90.93429504 19.3428065 90.93429504 21 93 C24.66484281 94.2180773 24.66484281 94.2180773 28 94 C25 96 25 96 22.2890625 96.87890625 C18.40721771 98.20205287 14.97063415 99.98568664 11.375 101.9375 C10.72015625 102.28490234 10.0653125 102.63230469 9.390625 102.99023438 C6.68722109 104.44317716 4.12079511 105.90930267 1.6640625 107.75390625 C0 109 0 109 -2 109 C-2 109.66 -2 110.32 -2 111 C-2.78375 111.2475 -3.5675 111.495 -4.375 111.75 C-7.42295608 113.20140766 -7.72536664 113.99550707 -9 117 C-10.5 118.75 -10.5 118.75 -12 120 C-12.66 120 -13.32 120 -14 120 C-15.38233568 113.77948945 -14.93488947 108.09166159 -13 102 C-11.71484375 100.2421875 -11.71484375 100.2421875 -10.3125 98.8125 C-7.82525765 96.3433948 -7.82525765 96.3433948 -7.86328125 93.96875 C-8.24119126 90.85522277 -9.00978733 87.97063802 -10 85 C-9.01 84.01 -9.01 84.01 -8 83 C-7.34 83 -6.68 83 -6 83 C-6.14076315 81.0412957 -6.2877676 79.08303907 -6.4375 77.125 C-6.51871094 76.03445313 -6.59992188 74.94390625 -6.68359375 73.8203125 C-6.83001703 71.05271029 -6.83001703 71.05271029 -8 69 C-7.72057545 67.32345271 -7.39171753 65.65391846 -7 64 C-8.65 63.67 -10.3 63.34 -12 63 C-11.57815409 58.50031028 -9.60763262 55.5300092 -7.15625 51.8671875 C-4.38672503 47.39477893 -4.79417173 42.71696108 -4.671875 37.6171875 C-4.03038965 34.16360939 -3.3013032 32.65088404 -1.5 29.75390625 C1.56846787 24.57023827 1.74167728 19.98411847 1.75 14.0625 C1.78306959 12.19915553 1.81936337 10.33586458 1.859375 8.47265625 C1.86662598 7.25461304 1.86662598 7.25461304 1.87402344 6.01196289 C2 4 2 4 3 2 C2.01 2.33 1.02 2.66 0 3 C0 2.01 0 1.02 0 0 Z " fill="#EBEAE9" transform="translate(243,203)"/>
<path d="M0 0 C1.921875 0.5546875 1.921875 0.5546875 4 2 C4.828125 5.2578125 4.828125 5.2578125 5.25 9.125 C5.39953125 10.40632813 5.5490625 11.68765625 5.703125 13.0078125 C5.85007812 14.48894531 5.85007812 14.48894531 6 16 C4.68 16 3.36 16 2 16 C1.9071875 17.3303125 1.9071875 17.3303125 1.8125 18.6875 C0.60045533 27.08645746 -3.14036084 35.37043801 -7.8828125 42.3515625 C-9.14969026 44.15314687 -9.14969026 44.15314687 -10.5 46.875 C-12.40827191 49.5783852 -13.82423397 50.16825175 -17 51 C-20.1804747 51.46543532 -21.4961806 51.30788963 -24.25 49.625 C-26.90503072 45.64245392 -27.34603432 41.74140637 -27 37 C-26.14570801 35.07684966 -25.1128534 33.50994724 -23.9140625 31.78515625 C-22.75001516 29.51178175 -22.82886246 27.91126876 -22.9375 25.375 C-23.03668979 22.58823937 -22.9840368 20.94982994 -22.125 18.25 C-18.11662032 14.00583328 -12.47510948 11.82503649 -7 10 C-7 9.34 -7 8.68 -7 8 C-6.34 8 -5.68 8 -5 8 C-4.731875 7.4225 -4.46375 6.845 -4.1875 6.25 C-2.98280141 3.9674132 -1.59201885 2.0262058 0 0 Z " fill="#E8E7E7" transform="translate(361,298)"/>
<path d="M0 0 C4.61125228 1.50808251 9.1893048 3.06210624 13.7265625 4.78125 C24.0465892 8.50013155 30.62176468 9.94806695 40.73828125 5.20703125 C44.65054661 3.7592588 46.95920752 4.18047233 51 5 C52.32 5 53.64 5 55 5 C55.02888514 8.14581423 55.04675923 11.29159469 55.0625 14.4375 C55.07087891 15.33533203 55.07925781 16.23316406 55.08789062 17.15820312 C55.09111328 18.01220703 55.09433594 18.86621094 55.09765625 19.74609375 C55.10289307 20.53685303 55.10812988 21.3276123 55.11352539 22.14233398 C55 24 55 24 54 25 C55.485 25.495 55.485 25.495 57 26 C56.67 27.32 56.34 28.64 56 30 C56 29.01 56 28.02 56 27 C55.0925 27.495 54.185 27.99 53.25 28.5 C48.04026795 30.78798541 42.574383 30.24714013 37 30 C37 29.34 37 28.68 37 28 C42.28 26.35 47.56 24.7 53 23 C53.33 17.39 53.66 11.78 54 6 C52.5975 6.5775 51.195 7.155 49.75 7.75 C45.7765427 9.33035234 41.78627979 10.83730207 37.75 12.25 C36.79609375 12.58515625 35.8421875 12.9203125 34.859375 13.265625 C28.20673453 14.97422665 23.15082291 13.32614507 16.875 11.125 C16.07707031 10.85558594 15.27914063 10.58617187 14.45703125 10.30859375 C10.79446343 9.0551273 7.48120834 7.74060417 4 6 C4 11.61 4 17.22 4 23 C6.31 23.99 8.62 24.98 11 26 C11.99 26.66 12.98 27.32 14 28 C9.70700357 29.26264601 7.12168689 28.62950412 3 27 C-0.86786033 30.86786033 -1.19010968 34.89894991 -1.3125 40.1875 C-1.71781793 46.80769288 -3.66649391 51.36107848 -7 57 C-7.6766726 58.32828326 -8.34673597 59.66004913 -9 61 C-8.01 61 -7.02 61 -6 61 C-3.88837316 64.16744026 -3.93801794 65.08139401 -4.0625 68.68359375 C-3.92367324 73.82886037 -2.83557394 78.93433299 -2 84 C3.94 84 9.88 84 16 84 C16 84.66 16 85.32 16 86 C10.27526596 86.83268859 4.77936828 87.10259234 -1 87 C-1.99 87 -2.98 87 -4 87 C-4.66 87 -5.32 87 -6 87 C-6 89.64 -6 92.28 -6 95 C-8.18975773 91.71536341 -8.99806563 88.79303725 -10 85 C-9.01 84.01 -9.01 84.01 -8 83 C-7.34 83 -6.68 83 -6 83 C-6.14076315 81.0412957 -6.2877676 79.08303907 -6.4375 77.125 C-6.51871094 76.03445313 -6.59992188 74.94390625 -6.68359375 73.8203125 C-6.83001703 71.05271029 -6.83001703 71.05271029 -8 69 C-7.72057545 67.32345271 -7.39171753 65.65391846 -7 64 C-8.65 63.67 -10.3 63.34 -12 63 C-11.57815409 58.50031028 -9.60763262 55.5300092 -7.15625 51.8671875 C-4.38672503 47.39477893 -4.79417173 42.71696108 -4.671875 37.6171875 C-4.03038965 34.16360939 -3.3013032 32.65088404 -1.5 29.75390625 C1.56846787 24.57023827 1.74167728 19.98411847 1.75 14.0625 C1.78306959 12.19915553 1.81936337 10.33586458 1.859375 8.47265625 C1.86420898 7.66062744 1.86904297 6.84859863 1.87402344 6.01196289 C2 4 2 4 3 2 C2.01 2.33 1.02 2.66 0 3 C0 2.01 0 1.02 0 0 Z " fill="#A29E9D" transform="translate(243,203)"/>
<path d="M0 0 C1.98 0.66 3.96 1.32 6 2 C5.01 2.495 5.01 2.495 4 3 C4.33 3.99 4.66 4.98 5 6 C4.6841934 7.67007637 4.34809343 9.33635345 4 11 C3.9340265 13.10323534 3.91437755 15.20835724 3.9375 17.3125 C3.95103516 18.91544922 3.95103516 18.91544922 3.96484375 20.55078125 C3.97644531 21.35902344 3.98804688 22.16726562 4 23 C5.093125 23.45375 6.18625 23.9075 7.3125 24.375 C9.82137765 25.41642091 11.69717067 26.46478044 14 28 C9.70700357 29.26264601 7.12168689 28.62950412 3 27 C-0.86786033 30.86786033 -1.19010968 34.89894991 -1.3125 40.1875 C-1.71781793 46.80769288 -3.66649391 51.36107848 -7 57 C-7.6766726 58.32828326 -8.34673597 59.66004913 -9 61 C-8.01 61 -7.02 61 -6 61 C-3.88837316 64.16744026 -3.93801794 65.08139401 -4.0625 68.68359375 C-3.92367324 73.82886037 -2.83557394 78.93433299 -2 84 C3.94 84 9.88 84 16 84 C16 84.66 16 85.32 16 86 C10.27526596 86.83268859 4.77936828 87.10259234 -1 87 C-1.99 87 -2.98 87 -4 87 C-4.66 87 -5.32 87 -6 87 C-6 89.64 -6 92.28 -6 95 C-8.18975773 91.71536341 -8.99806563 88.79303725 -10 85 C-9.01 84.01 -9.01 84.01 -8 83 C-7.34 83 -6.68 83 -6 83 C-6.14076315 81.0412957 -6.2877676 79.08303907 -6.4375 77.125 C-6.51871094 76.03445313 -6.59992188 74.94390625 -6.68359375 73.8203125 C-6.83001703 71.05271029 -6.83001703 71.05271029 -8 69 C-7.72057545 67.32345271 -7.39171753 65.65391846 -7 64 C-8.65 63.67 -10.3 63.34 -12 63 C-11.57815409 58.50031028 -9.60763262 55.5300092 -7.15625 51.8671875 C-4.38672503 47.39477893 -4.79417173 42.71696108 -4.671875 37.6171875 C-4.03038965 34.16360939 -3.3013032 32.65088404 -1.5 29.75390625 C1.56846787 24.57023827 1.74167728 19.98411847 1.75 14.0625 C1.78306959 12.19915553 1.81936337 10.33586458 1.859375 8.47265625 C1.86420898 7.66062744 1.86904297 6.84859863 1.87402344 6.01196289 C2 4 2 4 3 2 C2.01 2.33 1.02 2.66 0 3 C0 2.01 0 1.02 0 0 Z " fill="#989292" transform="translate(243,203)"/>
<path d="M0 0 C1.32 0 2.64 0 4 0 C4.02888514 3.14581423 4.04675923 6.29159469 4.0625 9.4375 C4.07087891 10.33533203 4.07925781 11.23316406 4.08789062 12.15820312 C4.09272461 13.43920898 4.09272461 13.43920898 4.09765625 14.74609375 C4.10551147 15.93223267 4.10551147 15.93223267 4.11352539 17.14233398 C4 19 4 19 3 20 C3.99 20.33 4.98 20.66 6 21 C5.67 22.32 5.34 23.64 5 25 C5 24.01 5 23.02 5 22 C4.0925 22.495 3.185 22.99 2.25 23.5 C-2.95973205 25.78798541 -8.425617 25.24714013 -14 25 C-14 24.34 -14 23.68 -14 23 C-6.08 20.525 -6.08 20.525 2 18 C2.33 12.39 2.66 6.78 3 1 C1.39125 1.66 -0.2175 2.32 -1.875 3 C-6.75 5 -6.75 5 -9 5 C-9 4.01 -9 3.02 -9 2 C-10.32 1.67 -11.64 1.34 -13 1 C-8.19849322 -0.99086866 -5.07208281 -0.93927459 0 0 Z " fill="#B9B3B5" transform="translate(294,208)"/>
<path d="M0 0 C0.33 0 0.66 0 1 0 C1.33 2.97 1.66 5.94 2 9 C7.94 9 13.88 9 20 9 C20 9.66 20 10.32 20 11 C14.27526596 11.83268859 8.77936828 12.10259234 3 12 C2.01 12 1.02 12 0 12 C-0.66 12 -1.32 12 -2 12 C-2 14.64 -2 17.28 -2 20 C-4.18975773 16.71536341 -4.99806563 13.79303725 -6 10 C-5.34 9.34 -4.68 8.68 -4 8 C-3.34 8 -2.68 8 -2 8 C-2 6.02 -2 4.04 -2 2 C-1.34 2 -0.68 2 0 2 C0 1.34 0 0.68 0 0 Z " fill="#BEB3B4" transform="translate(239,278)"/>
<path d="M0 0 C0.66 0.33 1.32 0.66 2 1 C-0.33333333 5.66666667 -2.66666667 10.33333333 -5 15 C-4.01 15 -3.02 15 -2 15 C0.42130331 18.63195496 0.21022785 20.38349348 0.125 24.6875 C0.10695312 25.86699219 0.08890625 27.04648437 0.0703125 28.26171875 C0.03550781 29.61716797 0.03550781 29.61716797 0 31 C-0.66 31 -1.32 31 -2 31 C-2.144375 30.05125 -2.28875 29.1025 -2.4375 28.125 C-2.82935399 25.1065506 -2.82935399 25.1065506 -4 23 C-3.72057545 21.32345271 -3.39171753 19.65391846 -3 18 C-4.65 17.67 -6.3 17.34 -8 17 C-7.58277442 12.54959382 -5.66402871 9.59801344 -3.25390625 5.96484375 C-2.01929252 4.03023097 -0.99046149 2.06845214 0 0 Z " fill="#BFB1B3" transform="translate(239,249)"/>
<path d="M0 0 C0 0.99 0 1.98 0 3 C-10.5691906 7.67885117 -10.5691906 7.67885117 -16 7 C-16.66 6.67 -17.32 6.34 -18 6 C-18 5.01 -18 4.02 -18 3 C-16.96875 3.061875 -15.9375 3.12375 -14.875 3.1875 C-9.30318779 2.91789618 -5.66499405 -0.49985242 0 0 Z " fill="#C8C5C5" transform="translate(285,210)"/>
<path d="M0 0 C1.32 0 2.64 0 4 0 C4 6.27 4 12.54 4 19 C3.34 18.67 2.68 18.34 2 18 C2.33 12.39 2.66 6.78 3 1 C1.39125 1.66 -0.2175 2.32 -1.875 3 C-6.75 5 -6.75 5 -9 5 C-9 4.01 -9 3.02 -9 2 C-10.32 1.67 -11.64 1.34 -13 1 C-8.19849322 -0.99086866 -5.07208281 -0.93927459 0 0 Z " fill="#989494" transform="translate(294,208)"/>
<path d="M0 0 C1.98 0.66 3.96 1.32 6 2 C5.01 2.495 5.01 2.495 4 3 C4.33 3.99 4.66 4.98 5 6 C4.6841934 7.67007637 4.34809343 9.33635345 4 11 C3.9340265 13.10323534 3.91437755 15.20835724 3.9375 17.3125 C3.95103516 18.91544922 3.95103516 18.91544922 3.96484375 20.55078125 C3.97644531 21.35902344 3.98804688 22.16726562 4 23 C3.34 23.33 2.68 23.66 2 24 C1.97104775 20.70835171 1.9532177 17.41673601 1.9375 14.125 C1.92493164 12.71927734 1.92493164 12.71927734 1.91210938 11.28515625 C1.90888672 10.38925781 1.90566406 9.49335938 1.90234375 8.5703125 C1.89710693 7.74289551 1.89187012 6.91547852 1.88647461 6.06298828 C2 4 2 4 3 2 C2.01 2.33 1.02 2.66 0 3 C0 2.01 0 1.02 0 0 Z " fill="#7C7A7A" transform="translate(243,203)"/>
<path d="M0 0 C1.19109375 0.40798828 1.19109375 0.40798828 2.40625 0.82421875 C3.2003125 1.08847656 3.994375 1.35273438 4.8125 1.625 C6.90625 2.51171875 6.90625 2.51171875 8.90625 4.51171875 C5.84931678 6.04018536 3.27640453 5.7441432 -0.09375 5.51171875 C-2.53125 4.13671875 -2.53125 4.13671875 -4.09375 2.51171875 C-4.09375 1.85171875 -4.09375 1.19171875 -4.09375 0.51171875 C-2.09375 -0.48828125 -2.09375 -0.48828125 0 0 Z " fill="#C9C3C3" transform="translate(251.09375,205.48828125)"/>
<path d="M0 0 C3 3 3 3 3.75 5.125 C4.97444013 7.43724932 4.97444013 7.43724932 8.625 7.75 C9.73875 7.8325 10.8525 7.915 12 8 C8.71536341 10.18975773 5.79303725 10.99806563 2 12 C1.34 8.04 0.68 4.08 0 0 Z " fill="#9B9394" transform="translate(259,289)"/>
<path d="M0 0 C1.47193312 2.94386623 0.84936173 5.37390036 0.5625 8.625 C0.46066406 9.81351563 0.35882813 11.00203125 0.25390625 12.2265625 C0.17011719 13.14179688 0.08632813 14.05703125 0 15 C-0.66 15 -1.32 15 -2 15 C-2 11.37 -2 7.74 -2 4 C-3.65 4 -5.3 4 -7 4 C-6.1028125 3.566875 -6.1028125 3.566875 -5.1875 3.125 C-2.80672208 1.95257974 -2.80672208 1.95257974 0 0 Z " fill="#9E9192" transform="translate(311,198)"/>
<path d="M0 0 C1.98 0.99 1.98 0.99 4 2 C4 6.29 4 10.58 4 15 C3.34 15 2.68 15 2 15 C1.855625 14.05125 1.71125 13.1025 1.5625 12.125 C1.17064601 9.1065506 1.17064601 9.1065506 0 7 C0.33333333 5.33333333 0.66666667 3.66666667 1 2 C0.67 1.34 0.34 0.68 0 0 Z " fill="#7E7671" transform="translate(235,265)"/>
<path d="M0 0 C-0.639375 0.28875 -1.27875 0.5775 -1.9375 0.875 C-4.15206079 1.82823451 -4.15206079 1.82823451 -5 4 C-7.64860427 4.59355614 -10.29197322 4.74209269 -13 5 C-12 2 -12 2 -10.29296875 1.015625 C-9.59816406 0.76296875 -8.90335937 0.5103125 -8.1875 0.25 C-7.15689453 -0.14445313 -7.15689453 -0.14445313 -6.10546875 -0.546875 C-3.71856031 -1.06056958 -2.29362227 -0.76282269 0 0 Z " fill="#D1CFCE" transform="translate(303,204)"/>
<path d="M0 0 C0.33 0.66 0.66 1.32 1 2 C0.34 2 -0.32 2 -1 2 C-1.226875 2.556875 -1.45375 3.11375 -1.6875 3.6875 C-3.35896766 6.63246684 -5.55276352 8.68156544 -8 11 C-8.99 10.67 -9.98 10.34 -11 10 C-9.88121617 8.82737096 -8.75476949 7.66204862 -7.625 6.5 C-6.68527344 5.52546875 -6.68527344 5.52546875 -5.7265625 4.53125 C-4 3 -4 3 -2 3 C-2 2.34 -2 1.68 -2 1 C-1.34 0.67 -0.68 0.34 0 0 Z " fill="#AEAEAE" transform="translate(248,314)"/>
<path d="M0 0 C0 0.99 0 1.98 0 3 C-2.2747813 4.38111722 -3.50171361 5.05694702 -6.1875 4.75 C-8 4 -8 4 -9 2 C-5.86501708 0.14223235 -3.62528568 -0.20140476 0 0 Z " fill="#D4CECF" transform="translate(285,210)"/>
<path d="M0 0 C0.33 0 0.66 0 1 0 C1 2.97 1 5.94 1 9 C0.01 9.495 0.01 9.495 -1 10 C-2.35439668 7.29120665 -2.06501451 4.99066732 -2 2 C-1.34 2 -0.68 2 0 2 C0 1.34 0 0.68 0 0 Z " fill="#D4C6C4" transform="translate(239,278)"/>
<path d="M0 0 C0 0.66 0 1.32 0 2 C-0.94875 2.12375 -1.8975 2.2475 -2.875 2.375 C-6.08667191 2.71687177 -6.08667191 2.71687177 -8 5 C-9.32 4.34 -10.64 3.68 -12 3 C-11.67 2.34 -11.34 1.68 -11 1 C-9.00390625 0.5859375 -9.00390625 0.5859375 -6.5625 0.375 C-5.75941406 0.30023438 -4.95632813 0.22546875 -4.12890625 0.1484375 C-2.75505053 0.05264572 -1.3771912 0 0 0 Z " fill="#949190" transform="translate(360,209)"/>
<path d="M0 0 C1.98 0.66 3.96 1.32 6 2 C5.01 2.495 5.01 2.495 4 3 C4.33 3.99 4.66 4.98 5 6 C4.67 6.99 4.34 7.98 4 9 C3.34 9 2.68 9 2 9 C2.33 6.69 2.66 4.38 3 2 C2.01 2.33 1.02 2.66 0 3 C0 2.01 0 1.02 0 0 Z " fill="#9A9999" transform="translate(243,203)"/>
<path d="M0 0 C-0.598125 0.2475 -1.19625 0.495 -1.8125 0.75 C-4.28647521 2.16370012 -5.43370255 3.65055383 -7 6 C-7.33 5.34 -7.66 4.68 -8 4 C-10.52733235 3.34444881 -10.52733235 3.34444881 -13 3 C-13 2.67 -13 2.34 -13 2 C-8.46298506 0.54815522 -4.81938524 -0.23509196 0 0 Z " fill="#908F8E" transform="translate(304,130)"/>
<path d="M0 0 C1.24546405 2.49092811 0.7767578 3.41080733 0 6 C-0.66 6 -1.32 6 -2 6 C-2 5.34 -2 4.68 -2 4 C-3.65 4 -5.3 4 -7 4 C-6.1028125 3.566875 -6.1028125 3.566875 -5.1875 3.125 C-2.80672208 1.95257974 -2.80672208 1.95257974 0 0 Z " fill="#8C8182" transform="translate(311,198)"/>
</svg>
